# xmcd CD database file
#
# Track frame offsets:
#	150
#	15364
#	31261
#	46618
#	61173
#	79878
#	95703
#	109651
#	129357
#	150243
#	167189
#	181840
#	199381
#
# Disc length: 2847 seconds
#
# Revision: 1
# Processed by: cddbd v1.5.1PL0 Copyright (c) Steve Scherf et al.
# Submitted via: CDex 1.51
#
DISCID=960b1d0d
DTITLE=Norah Jones - Come Away With Me
DYEAR=1900
DGENRE=Jazz
TTITLE0=Don't Know Why
TTITLE1=Seven Years
TTITLE2=Cold Cold Heart
TTITLE3=Feelin' The Same Way
TTITLE4=Come Away With Me
TTITLE5=Shoot The Moon
TTITLE6=Turn Me On
TTITLE7=Lone Star
TTITLE8=I've Got To See You Again
TTITLE9=Painter's Song
TTITLE10=One Flight Down
TTITLE11=Nightingale
TTITLE12=Long Day Is Over, The
EXTD=
EXTT0=
EXTT1=
EXTT2=
EXTT3=
EXTT4=
EXTT5=
EXTT6=
EXTT7=
EXTT8=
EXTT9=
EXTT10=
EXTT11=
EXTT12=
PLAYORDER=
